<svg width="120" height="120" fill="none" xmlns="http://www.w3.org/2000/svg"><circle cx="60" cy="60" r="58.5" fill="#26CBE5" stroke="#33A3E1" stroke-width="3"/><path d="M54 68.105v16.017c11.482 10.489 16.419 12.43 22.922 9.856 7.066-10.104 6.47-15.769 0-25.873-15.148-4.437-19.322-3.832-22.922 0ZM112.75 33.5c-8.314 19.198-8.595 28.701 4 43 2.765-16.827 3.113-26.245-4-43ZM26.536 12C6.208 30.5-.047 44 2.56 66c13.852-3.57 19.345-6.51 25.02-13.5 16.448-14.063 15.882-16.986 12.51-21 .965-10.544-1.118-16.063-13.553-19.5Z" fill="#9AE33C" stroke="#33A3E1" stroke-width="2"/></svg>