<svg width="150" height="150" fill="none" xmlns="http://www.w3.org/2000/svg"><g clip-path="url('#clip0_85:2')"><rect width="150" height="150" rx="8" fill="#26CBE6"/><g filter="url('#filter0_d_85:2')"><path d="M76.665 39.871c12.21 0 21.968 3.545 29.273 10.635 7.304 7.09 10.957 16.56 10.957 28.413 0 9.775-2.453 18.029-7.359 24.761l9.883 9.292-7.896 7.949-10.742-9.775c-6.839 4.44-14.842 6.66-24.009 6.66-5.729 0-11.064-.878-16.005-2.632-4.906-1.755-9.185-4.243-12.837-7.466-3.617-3.223-6.463-7.287-8.54-12.192-2.041-4.906-3.062-10.367-3.062-16.382 0-7.914 1.701-14.842 5.103-20.786 3.437-5.98 8.2-10.546 14.287-13.697 6.087-3.187 13.07-4.78 20.947-4.78Zm-.806 12.407c-2.47 0-4.905.305-7.304.913-2.364.61-4.673 1.594-6.929 2.954a23.476 23.476 0 0 0-5.854 4.942c-1.683 1.933-3.044 4.386-4.082 7.358-1.003 2.937-1.505 6.177-1.505 9.722 0 4.368.752 8.307 2.256 11.816 1.504 3.474 3.527 6.32 6.07 8.54 2.578 2.22 5.532 3.921 8.862 5.103s6.857 1.772 10.581 1.772c4.655 0 8.88-.948 12.676-2.846L72.69 88.103l9.507-8.325 17.295 14.556c2.22-3.796 3.33-8.54 3.33-14.233 0-4.261-.608-8.057-1.826-11.387-1.181-3.33-2.703-5.998-4.565-8.003-1.826-2.005-3.975-3.67-6.446-4.995-2.47-1.325-4.852-2.22-7.143-2.686a32.58 32.58 0 0 0-6.983-.752Z" fill="#F7F7F7"/></g></g><defs><clipPath id="clip0_85:2"><rect width="150" height="150" rx="15" fill="#fff"/></clipPath><filter id="filter0_d_85:2" x="32.328" y="38.871" width="91.091" height="89.05" filterUnits="userSpaceOnUse" color-interpolation-filters="sRGB"><feFlood flood-opacity="0" result="BackgroundImageFix"/><feColorMatrix in="SourceAlpha" values="0 0 0 0 0 0 0 0 0 0 0 0 0 0 0 0 0 0 127 0" result="hardAlpha"/><feOffset dy="3"/><feGaussianBlur stdDeviation="2"/><feComposite in2="hardAlpha" operator="out"/><feColorMatrix values="0 0 0 0 0 0 0 0 0 0 0 0 0 0 0 0 0 0 0.25 0"/><feBlend in2="BackgroundImageFix" result="effect1_dropShadow_85:2"/><feBlend in="SourceGraphic" in2="effect1_dropShadow_85:2" result="shape"/></filter></defs></svg>