<svg width="120" height="120" fill="none" xmlns="http://www.w3.org/2000/svg"><path d="M85.196 86h-52.82a5 5 0 0 0-4.38 2.588l-9.913 18c-1.836 3.332.575 7.412 4.38 7.412h74.356c3.961 0 6.349-4.385 4.201-7.712l-11.624-18a5 5 0 0 0-4.2-2.288Z" fill="#F59E0B" stroke="#D97706" stroke-width="3"/><path d="M68.5 33v21.74a5 5 0 0 0 .806 2.722l31.682 48.816c2.159 3.326-.228 7.722-4.194 7.722H22.357c-3.78 0-6.193-4.033-4.406-7.364l26.455-49.309A5 5 0 0 0 45 54.963V33" stroke="#D97706" stroke-width="3"/><circle cx="63" cy="9" r="4" fill="#F59E0B"/><circle cx="64.5" cy="24.5" r="2.5" fill="#F59E0B"/><circle cx="49" cy="21" r="4" fill="#F59E0B"/><circle cx="55.5" cy="59.5" r="3.5" fill="#F59E0B"/></svg>